<svg width="12" height="14" viewBox="0 0 12 14" fill="none" xmlns="http://www.w3.org/2000/svg">
<path id="Vector" d="M3.80165 8.20869C3.6285 8.20869 3.48326 8.14629 3.36593 8.02149C3.249 7.89712 3.19054 7.74286 3.19054 7.55869C3.19054 7.37452 3.249 7.22004 3.36593 7.09524C3.48326 6.97087 3.6285 6.90869 3.80165 6.90869C3.9748 6.90869 4.12004 6.97087 4.23737 7.09524C4.3543 7.22004 4.41276 7.37452 4.41276 7.55869C4.41276 7.74286 4.3543 7.89712 4.23737 8.02149C4.12004 8.14629 3.9748 8.20869 3.80165 8.20869ZM6.24609 8.20869C6.07295 8.20869 5.92791 8.14629 5.81098 8.02149C5.69365 7.89712 5.63498 7.74286 5.63498 7.55869C5.63498 7.37452 5.69365 7.22004 5.81098 7.09524C5.92791 6.97087 6.07295 6.90869 6.24609 6.90869C6.41924 6.90869 6.56448 6.97087 6.68182 7.09524C6.79874 7.22004 6.8572 7.37452 6.8572 7.55869C6.8572 7.74286 6.79874 7.89712 6.68182 8.02149C6.56448 8.14629 6.41924 8.20869 6.24609 8.20869ZM8.69054 8.20869C8.51739 8.20869 8.37235 8.14629 8.25543 8.02149C8.13809 7.89712 8.07943 7.74286 8.07943 7.55869C8.07943 7.37452 8.13809 7.22004 8.25543 7.09524C8.37235 6.97087 8.51739 6.90869 8.69054 6.90869C8.86369 6.90869 9.00872 6.97087 9.12565 7.09524C9.24298 7.22004 9.30165 7.37452 9.30165 7.55869C9.30165 7.74286 9.24298 7.89712 9.12565 8.02149C9.00872 8.14629 8.86369 8.20869 8.69054 8.20869ZM1.96832 13.4087C1.6322 13.4087 1.34437 13.2815 1.10482 13.0271C0.865668 12.7723 0.746094 12.4662 0.746094 12.1087V3.00869C0.746094 2.65119 0.865668 2.34526 1.10482 2.09089C1.34437 1.83609 1.6322 1.70869 1.96832 1.70869H2.57943V0.408691H3.80165V1.70869H8.69054V0.408691H9.91276V1.70869H10.5239C10.86 1.70869 11.1478 1.83609 11.3874 2.09089C11.6265 2.34526 11.7461 2.65119 11.7461 3.00869V12.1087C11.7461 12.4662 11.6265 12.7723 11.3874 13.0271C11.1478 13.2815 10.86 13.4087 10.5239 13.4087H1.96832ZM1.96832 12.1087H10.5239V5.60869H1.96832V12.1087ZM1.96832 4.30869H10.5239V3.00869H1.96832V4.30869Z" fill="#687989"/>
</svg>
