<svg width="13" height="13" viewBox="0 0 13 13" fill="none" xmlns="http://www.w3.org/2000/svg">
<g id="Iconsax/Outline/colorswatch" clip-path="url(#clip0_2462_557)">
<path id="Vector" d="M3.245 12.2846C3.095 12.2846 2.935 12.2696 2.775 12.2396C2.69 12.2196 2.615 12.1996 2.54 12.1796C2.455 12.1546 2.375 12.1246 2.3 12.0946C2.28 12.0896 2.265 12.0796 2.25 12.0746C2.08928 11.9939 1.93544 11.9003 1.79 11.7946C1.78 11.7896 1.775 11.7796 1.765 11.7746C1.69036 11.7165 1.62016 11.653 1.555 11.5846C1.485 11.5096 1.435 11.4496 1.38 11.3896C1.265 11.2396 1.17 11.0896 1.085 10.9146C1.075 10.8996 1.07 10.8796 1.065 10.8596C1.035 10.7896 1.01 10.7196 0.99 10.6446C0.96 10.5396 0.94 10.4696 0.925 10.3946C0.89 10.2196 0.875 10.0646 0.875 9.91455V3.16455C0.875 2.20955 1.545 1.53955 2.5 1.53955H4C4.955 1.53955 5.625 2.20955 5.625 3.16455V9.90955C5.625 10.5296 5.385 11.1196 4.95 11.5646C4.87 11.6446 4.81 11.6996 4.755 11.7446C4.595 11.8846 4.39 12.0096 4.17 12.0996C4.12 12.1196 4.06 12.1446 3.995 12.1696C3.75 12.2446 3.495 12.2846 3.245 12.2846ZM2.615 11.4096C2.665 11.4296 2.715 11.4446 2.765 11.4596L2.93 11.5046C3.205 11.5546 3.5 11.5396 3.735 11.4596C3.77 11.4446 3.82 11.4296 3.865 11.4096C4.025 11.3446 4.155 11.2646 4.27 11.1696C4.32 11.1296 4.355 11.0946 4.39 11.0646C4.705 10.7396 4.87 10.3396 4.87 9.91455V3.16455C4.87 2.62455 4.535 2.28955 3.995 2.28955H2.495C1.955 2.28955 1.62 2.62455 1.62 3.16455V9.90955C1.62 10.0146 1.63 10.1246 1.655 10.2396C1.665 10.2846 1.68 10.3396 1.695 10.3996C1.715 10.4546 1.73 10.4996 1.75 10.5496C1.76 10.5646 1.765 10.5796 1.77 10.5896C1.775 10.5996 1.78 10.6146 1.785 10.6246C1.845 10.7346 1.905 10.8296 1.97 10.9146C2.005 10.9546 2.05 11.0046 2.095 11.0546C2.15 11.1146 2.195 11.1496 2.245 11.1896C2.25 11.1946 2.26 11.1996 2.265 11.2046C2.345 11.2646 2.435 11.3196 2.54 11.3746C2.55 11.3796 2.56 11.3796 2.57 11.3846C2.58 11.3896 2.595 11.3996 2.615 11.4096Z" fill="#687989" stroke="#687989" stroke-width="0.2"/>
<path id="Vector_2" d="M9.99609 12.2846H3.24609C3.04109 12.2846 2.87109 12.1146 2.87109 11.9096C2.87109 11.7046 3.04109 11.5346 3.24609 11.5346C3.42109 11.5346 3.59109 11.5096 3.73609 11.4596C3.77109 11.4446 3.82109 11.4296 3.86609 11.4096C4.02609 11.3446 4.15609 11.2646 4.27109 11.1696C4.32109 11.1296 4.35609 11.0946 4.39109 11.0646L7.81109 7.64955C7.88135 7.5792 7.97667 7.53964 8.07609 7.53955H9.99609C10.9511 7.53955 11.6211 8.20955 11.6211 9.16455V10.6646C11.6211 11.6146 10.9511 12.2846 9.99609 12.2846ZM4.97609 11.5346H9.99609C10.5361 11.5346 10.8711 11.1996 10.8711 10.6596V9.15955C10.8711 8.61955 10.5361 8.28455 9.99609 8.28455H8.23109L4.97609 11.5346Z" fill="#687989" stroke="#687989" stroke-width="0.2"/>
<path id="Vector_3" d="M2.61604 11.7292C2.58104 11.7292 2.54604 11.7242 2.51104 11.7142C2.14104 11.6042 1.80104 11.3992 1.53104 11.1242C1.26104 10.8592 1.05604 10.5193 0.946039 10.1493C0.886039 9.94925 0.996039 9.74425 1.19604 9.68425C1.39604 9.62425 1.60104 9.73425 1.66604 9.92925C1.74498 10.1806 1.8835 10.4092 2.0698 10.5955C2.25611 10.7818 2.48467 10.9203 2.73604 10.9992C2.93104 11.0592 3.04104 11.2692 2.98104 11.4692C2.92604 11.6242 2.77604 11.7292 2.61604 11.7292ZM4.64104 11.2162C4.56691 11.2162 4.49444 11.1944 4.43268 11.1534C4.37092 11.1124 4.32261 11.0541 4.2938 10.9858C4.26498 10.9175 4.25694 10.8422 4.27068 10.7694C4.28442 10.6965 4.31933 10.6294 4.37104 10.5762C4.67104 10.2712 4.83604 9.86625 4.83604 9.44125V4.61125C4.83604 4.51125 4.87604 4.41625 4.94604 4.34625L6.30104 2.99125C6.95604 2.33625 7.94604 2.33625 8.60104 2.99125L9.66104 4.05125C10.336 4.72625 10.336 5.67625 9.66104 6.35125L4.90604 11.1012C4.83104 11.1812 4.73604 11.2162 4.64104 11.2162ZM5.58604 4.77125V9.36625L9.13104 5.82625C9.51104 5.44625 9.51104 4.97125 9.13104 4.58625L8.07104 3.52625C7.69604 3.15125 7.20604 3.15125 6.83104 3.52625L5.58604 4.77125ZM3.21104 10.3203C2.73104 10.3203 2.33604 9.92525 2.33604 9.44525C2.33604 8.96525 2.73104 8.57025 3.21104 8.57025C3.69104 8.57025 4.08604 8.96525 4.08604 9.44525C4.08604 9.92525 3.69104 10.3203 3.21104 10.3203ZM3.21104 9.32025C3.14104 9.32025 3.08604 9.37525 3.08604 9.44525C3.08604 9.58525 3.33604 9.58525 3.33604 9.44525C3.33604 9.37525 3.28104 9.32025 3.21104 9.32025Z" fill="#687989" stroke="#687989" stroke-width="0.2"/>
</g>
<defs>
<clipPath id="clip0_2462_557">
<rect width="12" height="12" fill="white" transform="translate(0.246094 0.908691)"/>
</clipPath>
</defs>
</svg>
