<svg width="14" height="14" viewBox="0 0 14 14" fill="none" xmlns="http://www.w3.org/2000/svg">
<g id="ic:outline-place">
<path id="Vector" d="M7.2474 6.90837C6.65156 6.90837 6.16406 6.42087 6.16406 5.82503C6.16406 5.2292 6.65156 4.7417 7.2474 4.7417C7.84323 4.7417 8.33073 5.2292 8.33073 5.82503C8.33073 6.42087 7.84323 6.90837 7.2474 6.90837ZM10.4974 5.93337C10.4974 3.96712 9.06198 2.57503 7.2474 2.57503C5.43281 2.57503 3.9974 3.96712 3.9974 5.93337C3.9974 7.20087 5.05365 8.88003 7.2474 10.8842C9.44115 8.88003 10.4974 7.20087 10.4974 5.93337ZM7.2474 1.4917C9.5224 1.4917 11.5807 3.23587 11.5807 5.93337C11.5807 7.7317 10.1345 9.86045 7.2474 12.325C4.36031 9.86045 2.91406 7.7317 2.91406 5.93337C2.91406 3.23587 4.9724 1.4917 7.2474 1.4917Z" fill="#687989" stroke="#687989" stroke-width="0.2"/>
</g>
</svg>
