<svg width="17" height="16" viewBox="0 0 17 16" fill="none" xmlns="http://www.w3.org/2000/svg">
<path d="M11.5 10C11.1665 9.99994 10.8363 10.0668 10.5291 10.1966C10.2218 10.3263 9.94373 10.5165 9.71128 10.7557L6.83003 8.9038C7.05667 8.32261 7.05667 7.67749 6.83003 7.0963L9.71128 5.24442C10.1441 5.68775 10.726 5.95458 11.3444 5.99319C11.9627 6.0318 12.5734 5.83944 13.058 5.45339C13.5425 5.06735 13.8665 4.51513 13.967 3.90379C14.0676 3.29246 13.9376 2.66557 13.6022 2.14466C13.2668 1.62375 12.7499 1.24593 12.1518 1.08445C11.5536 0.922981 10.9168 0.989355 10.3649 1.27071C9.81289 1.55206 9.38504 2.02835 9.16428 2.60723C8.94352 3.18611 8.94557 3.82634 9.17003 4.4038L6.28878 6.25567C5.94182 5.89947 5.49652 5.65483 5.0098 5.55301C4.52308 5.4512 4.01706 5.49685 3.55642 5.68411C3.09578 5.87138 2.70144 6.19176 2.42383 6.6043C2.14621 7.01684 1.99792 7.5028 1.99792 8.00005C1.99792 8.4973 2.14621 8.98326 2.42383 9.3958C2.70144 9.80834 3.09578 10.1287 3.55642 10.316C4.01706 10.5033 4.52308 10.5489 5.0098 10.4471C5.49652 10.3453 5.94182 10.1006 6.28878 9.74442L9.17003 11.5963C8.97701 12.0941 8.94845 12.6407 9.08852 13.1559C9.2286 13.6712 9.52996 14.128 9.94847 14.4596C10.367 14.7912 10.8806 14.98 11.4143 14.9985C11.9479 15.0171 12.4734 14.8642 12.9139 14.5625C13.3544 14.2607 13.6867 13.8258 13.8621 13.3215C14.0376 12.8173 14.047 12.27 13.8889 11.76C13.7309 11.25 13.4137 10.804 12.9838 10.4873C12.5539 10.1706 12.034 9.99985 11.5 10ZM11.5 2.00005C11.7967 2.00005 12.0867 2.08802 12.3334 2.25284C12.5801 2.41767 12.7723 2.65193 12.8858 2.92602C12.9994 3.20011 13.0291 3.50171 12.9712 3.79268C12.9133 4.08366 12.7705 4.35093 12.5607 4.56071C12.3509 4.77049 12.0836 4.91335 11.7927 4.97123C11.5017 5.0291 11.2001 4.9994 10.926 4.88587C10.6519 4.77234 10.4176 4.58008 10.2528 4.3334C10.088 4.08673 10 3.79672 10 3.50005C10 3.10222 10.1581 2.72069 10.4394 2.43939C10.7207 2.15808 11.1022 2.00005 11.5 2.00005ZM4.50003 9.50005C4.20336 9.50005 3.91335 9.41208 3.66667 9.24725C3.42 9.08243 3.22774 8.84816 3.11421 8.57407C3.00068 8.29998 2.97097 7.99839 3.02885 7.70741C3.08673 7.41644 3.22959 7.14917 3.43937 6.93939C3.64915 6.72961 3.91642 6.58675 4.20739 6.52887C4.49836 6.47099 4.79996 6.5007 5.07405 6.61423C5.34814 6.72776 5.58241 6.92002 5.74723 7.16669C5.91205 7.41337 6.00003 7.70338 6.00003 8.00005C6.00003 8.39787 5.84199 8.7794 5.56069 9.06071C5.27938 9.34201 4.89785 9.50005 4.50003 9.50005ZM11.5 14C11.2034 14 10.9133 13.9121 10.6667 13.7473C10.42 13.5824 10.2277 13.3482 10.1142 13.0741C10.0007 12.8 9.97097 12.4984 10.0289 12.2074C10.0867 11.9164 10.2296 11.6492 10.4394 11.4394C10.6491 11.2296 10.9164 11.0867 11.2074 11.0289C11.4984 10.971 11.8 11.0007 12.0741 11.1142C12.3481 11.2278 12.5824 11.42 12.7472 11.6667C12.9121 11.9134 13 12.2034 13 12.5C13 12.8979 12.842 13.2794 12.5607 13.5607C12.2794 13.842 11.8979 14 11.5 14Z" fill="#3395FF"/>
</svg>
