<svg width="13" height="13" viewBox="0 0 13 13" fill="none" xmlns="http://www.w3.org/2000/svg">
<g id="Iconsax/Outline/tag">
<path id="Vector" d="M6.28077 11.8995C5.57577 11.8995 4.86577 11.6295 4.33077 11.0945L2.06577 8.82951C1.79432 8.55681 1.58258 8.23062 1.44399 7.87167C1.30541 7.51272 1.24301 7.12887 1.26077 6.74451L1.38077 4.24451C1.43577 3.04951 2.38077 2.10451 3.58077 2.04451L6.08077 1.92451C6.85577 1.89451 7.61577 2.17951 8.16577 2.72951L10.4308 4.99451C10.9471 5.51316 11.2369 6.21519 11.2369 6.94701C11.2369 7.67884 10.9471 8.38087 10.4308 8.89951L8.23577 11.0945C7.71632 11.611 7.01329 11.9005 6.28077 11.8995ZM2.59577 8.29451L4.86077 10.5595C5.24077 10.9395 5.74577 11.1495 6.28077 11.1495C6.81577 11.1495 7.32077 10.9395 7.70077 10.5595L9.89577 8.36451C10.2758 7.98451 10.4858 7.47951 10.4858 6.94451C10.4858 6.40951 10.2758 5.90451 9.89577 5.52451L7.63077 3.25951C7.23077 2.85951 6.67577 2.64451 6.11577 2.67451L3.61577 2.79451C2.80077 2.82951 2.16577 3.46451 2.12577 4.27451L2.00577 6.77451C1.98077 7.33951 2.19577 7.89451 2.59577 8.29451Z" fill="#687989" stroke="#687989" stroke-width="0.2"/>
<path id="Vector_2" d="M4.99609 7.28369C4.10109 7.28369 3.37109 6.55369 3.37109 5.65869C3.37109 4.76369 4.10109 4.03369 4.99609 4.03369C5.89109 4.03369 6.62109 4.76369 6.62109 5.65869C6.62109 6.55369 5.89109 7.28369 4.99609 7.28369ZM4.99609 4.78369C4.51609 4.78369 4.12109 5.17869 4.12109 5.65869C4.12109 6.13869 4.51609 6.53369 4.99609 6.53369C5.47609 6.53369 5.87109 6.13869 5.87109 5.65869C5.87109 5.17869 5.47609 4.78369 4.99609 4.78369Z" fill="#687989" stroke="#687989" stroke-width="0.2"/>
</g>
</svg>
